<svg data-v-fde0c5aa="" xmlns="http://www.w3.org/2000/svg" viewBox="0 0 300 300" class="font"><!----><defs data-v-fde0c5aa=""><!----></defs><rect data-v-fde0c5aa="" fill="#E7F3FC" x="0" y="0" width="300px" height="300px" class="logo-background-square"></rect><defs data-v-fde0c5aa=""><linearGradient data-v-fde0c5aa="" gradientTransform="rotate(25)" id="2c6fd8a1-8dc9-443e-8001-eb0ca32428f1" x1="0%" y1="0%" x2="100%" y2="0%"><stop data-v-fde0c5aa="" offset="0%" stop-color="#007DE8" stop-opacity="1"></stop><stop data-v-fde0c5aa="" offset="100%" stop-color="#A1C3DB" stop-opacity="1"></stop></linearGradient></defs><g data-v-fde0c5aa="" id="f15bff30-c78e-48e7-82c4-d0ffc9dbd239" fill="url(#2c6fd8a1-8dc9-443e-8001-eb0ca32428f1)" transform="matrix(4.621848517256896,0,0,4.621848517256896,37.96638666342631,105.6071460055273)"><path d="M3.89 13.34C5.35 13.34 7.07 12.59 7.07 10.65C7.07 9.17 5.92 8.31 4.51 7.82C3.11 7.31 2.58 6.91 2.58 6.14C2.58 5.40 3.24 4.87 4.07 4.87C4.80 4.87 5.32 5.13 5.95 5.70L6.91 4.71C6.24 4.08 5.40 3.59 4.07 3.59C2.48 3.59 1.05 4.64 1.05 6.15C1.05 7.86 2.22 8.46 3.76 9.01C4.71 9.35 5.50 9.79 5.50 10.70C5.50 11.61 4.62 12.06 3.81 12.06C2.90 12.06 2.16 11.72 1.49 10.89L0.44 11.90C1.27 12.83 2.35 13.34 3.89 13.34ZM11.83 6.53L10.41 6.53L10.41 4.64L9.01 4.64L9.01 6.53L8.14 6.53L8.14 7.67L9.01 7.67L9.01 13.15L10.43 13.15L10.41 7.67L11.83 7.67ZM15.82 13.34C17.91 13.34 19.37 11.81 19.37 9.84C19.37 7.89 17.91 6.36 15.82 6.36C13.71 6.36 12.26 7.89 12.26 9.84C12.26 11.81 13.71 13.34 15.82 13.34ZM15.82 12.13C14.60 12.13 13.74 11.14 13.74 9.84C13.74 8.56 14.60 7.57 15.82 7.57C17.03 7.57 17.89 8.56 17.89 9.84C17.89 11.14 17.03 12.13 15.82 12.13ZM23.87 13.34C24.79 13.34 25.54 13.07 26.15 12.60L25.33 11.58C24.97 11.93 24.46 12.13 23.90 12.13C22.60 12.13 21.83 11.14 21.83 9.84C21.83 8.55 22.60 7.57 23.90 7.57C24.46 7.57 24.97 7.77 25.33 8.12L26.15 7.10C25.54 6.64 24.79 6.36 23.87 6.36C21.82 6.36 20.39 7.89 20.39 9.84C20.39 11.81 21.82 13.34 23.87 13.34ZM33.51 13.15L29.95 9.54L33.10 6.53L31.25 6.53L28.67 9.04L28.67 3.24L27.26 3.24L27.26 13.15L28.67 13.15L28.67 10.06L31.63 13.15ZM35.13 5.26C35.64 5.26 36.05 4.86 36.05 4.36C36.05 3.86 35.64 3.46 35.13 3.46C34.64 3.46 34.23 3.86 34.23 4.36C34.23 4.86 34.64 5.26 35.13 5.26ZM34.46 13.15L35.85 13.15L35.85 6.53L34.46 6.53ZM40.26 4.20C40.45 4.20 40.70 4.27 40.92 4.43L41.53 3.40C41.07 3.12 40.67 2.99 40.12 2.99C38.94 2.99 38.11 3.81 38.11 5.40L38.11 6.53L37.23 6.53L37.23 7.67L38.11 7.67L38.11 13.15L39.51 13.15L39.51 7.67L40.89 7.67L40.89 6.53L39.51 6.53L39.51 5.29C39.51 4.65 39.70 4.20 40.26 4.20ZM46.52 6.53L44.57 11.35L42.61 6.53L41.11 6.53L43.87 12.99L42.44 16.22L43.90 16.22L48.04 6.53Z"></path></g><!----><!----></svg>